<svg width="20" height="14" viewBox="0 0 20 14" fill="none" xmlns="http://www.w3.org/2000/svg">
<path d="M19.15 1.45C18.6075 0.485 18.0188 0.3075 16.82 0.24C15.6225 0.15875 12.6112 0.125 10.0025 0.125C7.38875 0.125 4.37625 0.15875 3.18 0.23875C1.98375 0.3075 1.39375 0.48375 0.84625 1.45C0.2875 2.41375 0 4.07375 0 6.99625C0 6.99875 0 7 0 7C0 7.0025 0 7.00375 0 7.00375V7.00625C0 9.91625 0.2875 11.5887 0.84625 12.5425C1.39375 13.5075 1.9825 13.6825 3.17875 13.7638C4.37625 13.8338 7.38875 13.875 10.0025 13.875C12.6112 13.875 15.6225 13.8337 16.8212 13.765C18.02 13.6837 18.6087 13.5088 19.1513 12.5438C19.715 11.59 20 9.9175 20 7.0075C20 7.0075 20 7.00375 20 7.00125C20 7.00125 20 6.99875 20 6.9975C20 4.07375 19.715 2.41375 19.15 1.45ZM7.5 10.75V3.25L13.75 7L7.5 10.75Z" fill="#635854"/>
</svg>
